<mxfile host="app.diagrams.net" modified="2024-07-19T11:08:21.246Z" agent="Mozilla/5.0 (Macintosh; Intel Mac OS X 10_15_7) AppleWebKit/537.36 (KHTML, like Gecko) Chrome/126.0.0.0 Safari/537.36" version="24.7.1" etag="Xos-5L3IxuiMcbseUNrB" type="github">
  <diagram name="ページ1" id="wXOSVxA4khgBfaOfCs8p">
    <mxGraphModel>
      <root>
        <mxCell id="0" />
        <mxCell id="1" parent="0" />
      </root>
    </mxGraphModel>
  </diagram>
</mxfile>
